<svg width="24" height="24" viewBox="0 0 24 24" fill="none" xmlns="http://www.w3.org/2000/svg">
<rect width="24" height="24" rx="4" fill="#526EFF"/>
<path d="M19.8695 7.52424L10.5142 17.8558C10.4314 17.9481 10.3186 18 10.2009 18C10.0832 18 9.97045 17.9481 9.88759 17.8558L5.13053 12.6023C5.04699 12.5108 5 12.3863 5 12.2563C5 12.1264 5.04699 12.0018 5.13053 11.9103L5.74833 11.228C5.83119 11.1358 5.94398 11.0839 6.06164 11.0839C6.17931 11.0839 6.2921 11.1358 6.37496 11.228L10.1965 15.4484L18.625 6.1402C18.7996 5.95327 19.0771 5.95327 19.2517 6.1402L19.8695 6.83222C19.953 6.92372 20 7.04829 20 7.17823C20 7.30817 19.953 7.43273 19.8695 7.52424Z" fill="white"/>
</svg>
